<?xml version="1.0" encoding="UTF-8" standalone="no"?>
<!-- Created with Inkscape (http://www.inkscape.org/) -->

<svg
   xmlns:dc="http://purl.org/dc/elements/1.1/"
   xmlns:cc="http://creativecommons.org/ns#"
   xmlns:rdf="http://www.w3.org/1999/02/22-rdf-syntax-ns#"
   xmlns:svg="http://www.w3.org/2000/svg"
   xmlns="http://www.w3.org/2000/svg"
   xmlns:sodipodi="http://sodipodi.sourceforge.net/DTD/sodipodi-0.dtd"
   xmlns:inkscape="http://www.inkscape.org/namespaces/inkscape"
   width="256"
   height="256"
   viewBox="0 0 67.733331 67.733331"
   version="1.1"
   id="svg16"
   inkscape:version="0.92.3 (2405546, 2018-03-11)"
   sodipodi:docname="dance.svg">
  <defs
     id="defs10" />
  <sodipodi:namedview
     id="base"
     pagecolor="#ffffff"
     bordercolor="#666666"
     borderopacity="1.0"
     inkscape:pageopacity="0.0"
     inkscape:pageshadow="2"
     inkscape:zoom="2"
     inkscape:cx="203.8958"
     inkscape:cy="120.56381"
     inkscape:document-units="mm"
     inkscape:current-layer="layer7"
     showgrid="false"
     units="px"
     inkscape:window-width="1920"
     inkscape:window-height="986"
     inkscape:window-x="-11"
     inkscape:window-y="-11"
     inkscape:window-maximized="1" />
  <metadata
     id="metadata13">
    <rdf:RDF>
      <cc:Work
         rdf:about="">
        <dc:format>image/svg+xml</dc:format>
        <dc:type
           rdf:resource="http://purl.org/dc/dcmitype/StillImage" />
        <dc:title></dc:title>
      </cc:Work>
    </rdf:RDF>
  </metadata>
  <g
     inkscape:label="Layer 1"
     inkscape:groupmode="layer"
     id="layer1"
     transform="translate(0,-229.26668)"
     style="display:inline" />
  <g
     inkscape:groupmode="layer"
     id="layer7"
     inkscape:label="Layer 3"
     style="display:inline">
    <path
       style="display:inline;fill:#eaeba5;fill-opacity:1;stroke:none;stroke-width:14.67788887;stroke-miterlimit:4;stroke-dasharray:none;stroke-opacity:1"
       d="M 0.08992836,0.68555929 67.823254,-0.08495581 67.542624,49.437649 10.473349,19.129286 Z"
       id="path2238"
       inkscape:connector-curvature="0"
       sodipodi:nodetypes="ccccc" />
    <path
       sodipodi:nodetypes="ccccc"
       inkscape:connector-curvature="0"
       id="path2236"
       d="M 0.08992836,0.68555929 67.823254,26.013914 V 62.533857 H 0.08992836 Z"
       style="display:inline;fill:#130e12;fill-opacity:1;stroke:none;stroke-width:14.67788887;stroke-miterlimit:4;stroke-dasharray:none;stroke-opacity:1" />
    <path
       style="display:inline;fill:#4e7d7a;fill-opacity:1;stroke:none;stroke-width:6.95601559;stroke-miterlimit:4;stroke-dasharray:none;stroke-opacity:1"
       d="M 0.08992836,53.934904 67.823254,59.623443 v 8.202081 H 0.08992836 Z"
       id="rect2218"
       inkscape:connector-curvature="0"
       sodipodi:nodetypes="ccccc" />
  </g>
  <g
     inkscape:groupmode="layer"
     id="layer6"
     inkscape:label="Layer 2"
     style="display:inline">
    <path
       style="fill:#b03731;fill-opacity:1;stroke:none;stroke-width:0.85399997;stroke-miterlimit:4;stroke-dasharray:none;stroke-opacity:1"
       d="m 17.892447,25.102343 -2.678902,-0.363802 c 0,0 -2.017452,-2.414323 -2.050525,-2.546614 -0.03307,-0.132292 -1.455208,-1.289844 -1.322917,-1.322917 0.132292,-0.03307 3.075782,0.396875 3.075782,0.396875 l 1.951302,-1.455208 -2.447396,-1.686719 2.844271,1.256771 0.595312,0.429948 0.926042,-1.322917 -0.892969,-1.81901 1.422136,0.926041 1.81901,1.852084 1.124479,-1.256771 -0.496093,-0.79375 0.628385,1.289844 -0.595312,3.075781 c 0,0 0.198437,1.686719 0.760677,1.521354 0.562239,-0.165365 1.785937,-1.289844 1.785937,-1.289844 l -1.355989,2.579688 -1.620573,0.760677 -3.604948,-0.198438 z"
       id="path2280"
       inkscape:connector-curvature="0" />
    <path
       style="fill:#b97d7a;fill-opacity:1;stroke:none;stroke-width:0.85399997;stroke-miterlimit:4;stroke-dasharray:none;stroke-opacity:1"
       d="m 36.148697,22.853385 c -0.363802,0.132292 -2.05052,0.132292 -2.05052,0.132292 l -2.745052,-1.984375 -1.157552,0.496094 -2.050521,-0.79375 c 0,0 2.017448,-1.256771 2.215885,-1.256771 0.198438,0 2.480469,0.463021 2.678906,0.496093 0.198438,0.03307 3.208587,0.41016 3.208587,0.41016 l 1.090892,1.078122 z"
       id="path2216"
       inkscape:connector-curvature="0" />
    <path
       style="fill:#358d34;fill-opacity:1;stroke:none;stroke-width:0.85399997;stroke-miterlimit:4;stroke-dasharray:none;stroke-opacity:1"
       d="m 29.964062,59.398958 c 0.330729,-0.06615 4.828646,-2.182813 4.828646,-2.182813 l 0.330729,-2.447396 2.778125,-2.84427 7.408333,-12.501563 6.680729,-0.661458 6.35,0.79375 h 3.307292 l 1.322917,0.661458 2.315104,-0.264583 1.190625,-0.198438 0.330729,-1.918229 -3.770313,-0.06615 -4.960937,-2.182812 -8.929687,-1.852083 -1.984375,-1.5875 -3.770313,1.719791 -3.439583,0.463021 0.198437,1.852083 -2.711979,5.953125 0.595313,1.918229 -5.291667,8.003646 -0.595312,3.439583 z"
       id="path2208"
       inkscape:connector-curvature="0" />
    <path
       style="fill:#fffff6;fill-opacity:1;stroke:none;stroke-width:0.85399997;stroke-miterlimit:4;stroke-dasharray:none;stroke-opacity:1"
       d="m 39.952083,34.329682 c 0,0 0,0 0,0 l -0.944097,-1.441614 0.982215,-3.788545 -0.514493,-4.443356 -3.554684,-0.888671 -0.42095,-2.666014 0.748356,-0.748354 5.051393,0.561266 c 0,0 0.841899,-0.608039 1.028988,-0.608039 0.18709,0 2.432153,-0.327405 2.432153,-0.327405 l 2.666013,1.543482 1.122532,-0.42095 1.964431,-1.870886 1.777344,1.637025 0.841898,0.280633 -3.227281,3.040191 c 0,0 -2.993417,1.590254 -2.759557,2.011203 0.23386,0.420949 2.525697,5.519115 2.525697,5.519115 l -2.510062,0.428106 -3.770313,1.719792 z"
       id="path2210"
       inkscape:connector-curvature="0" />
    <path
       style="fill:#b97d7a;fill-opacity:1;stroke:none;stroke-width:0.85399997;stroke-miterlimit:4;stroke-dasharray:none;stroke-opacity:1"
       d="m 42.862499,21.034375 c 0.463021,0.09922 1.025261,0.661458 1.223698,0.661458 0.198438,0 1.620573,-1.091406 1.620573,-1.091406 l 0.496094,-0.727604 0.496094,-1.223698 0.297656,-1.35599 -0.264583,-1.984375 -1.488282,-1.81901 -2.348177,0.661458 -0.892968,2.711979 1.223698,0.926042 0.363802,1.389062 z"
       id="path2212"
       inkscape:connector-curvature="0" />
    <path
       style="fill:#b97d7a;fill-opacity:1;stroke:none;stroke-width:0.85399997;stroke-miterlimit:4;stroke-dasharray:none;stroke-opacity:1"
       d="m 50.51394,19.230596 1.675122,-1.70195 0.826823,-4.266407 -1.488281,-1.455208 0.529166,-0.297656 0.661459,0.496094 c 0,0 -0.231511,-0.661459 -0.231511,-0.859896 0,-0.198438 -2.182812,-2.3151044 -2.182812,-2.3151044 l 1.653645,-0.2976562 1.686719,1.190625 0.859896,3.4726566 c 0,0 0.79375,2.711979 0.79375,2.976562 0,0.264583 -1.422135,3.869531 -1.422135,3.869531 l -2.315105,1.5875 z"
       id="path2214"
       inkscape:connector-curvature="0" />
    <path
       style="fill:#eaeba5;fill-opacity:1;stroke:none;stroke-width:0.85399997;stroke-miterlimit:4;stroke-dasharray:none;stroke-opacity:1"
       d="m 7.3421874,59.531249 -4.2333333,2.315104 2.0505208,-6.151562 1.3890625,-0.06615 1.2567709,1.455208 z"
       id="path2272"
       inkscape:connector-curvature="0" />
    <path
       style="fill:#eaeba5;fill-opacity:1;stroke:none;stroke-width:0.85399997;stroke-miterlimit:4;stroke-dasharray:none;stroke-opacity:1"
       d="m 35.520312,35.983333 0.330729,2.050521 c 0,0 1.124479,0.330729 1.455208,0.330729 0.330729,0 4.431771,-1.521354 4.431771,-1.521354 l -0.198437,-1.322917 -3.042709,-0.330729 z"
       id="path2274"
       inkscape:connector-curvature="0" />
    <path
       style="fill:#ebd8aa;fill-opacity:1;stroke:none;stroke-width:0.85399997;stroke-miterlimit:4;stroke-dasharray:none;stroke-opacity:1"
       d="m 5.1593749,55.694791 2.6458334,1.389057 3.5718747,-4.365619 0.661458,-2.315105 5.159375,-8.135937 3.373438,-1.389063 c 0,0 7.805208,-0.396875 8.135937,-0.529166 0.330729,-0.132292 7.14375,-2.315104 7.14375,-2.315104 l -0.330729,-2.050521 -4.564063,0.06615 -3.042708,1.058333 -4.894792,-0.529167 -3.902604,-1.322916 -0.463021,-1.918229 3.108855,-3.836459 2.116666,-2.645833 1.918229,-12.766146 -3.373437,-3.505729 c 0,0 0.132292,0.330729 0.595312,1.389063 0.463021,1.058333 0.79375,3.175 0.79375,3.175 L 21.365104,25.333854 20.174479,26.524479 19.645312,25.4 l 0.264583,-1.256771 1.190625,0.132292 0.396875,-3.50573 -1.5875,-1.852083 -2.579687,1.984375 0.06615,2.645833 0.595312,0.79375 -0.859896,1.653646 -1.918229,-1.256771 -1.918229,-1.058333 -4.7624996,-3.042708 -3.5057291,-1.653646 0.8598958,1.322917 -1.9182292,0.926041 1.5875,1.190625 2.8442708,-0.926041 2.0505203,3.042708 4.431771,2.579687 -0.727604,2.116667 0.06615,6.482292 -0.661459,5.688541 -3.175,4.894792 -0.198441,1.785937 -0.5291667,1.058334 -1.455208,2.447395 z"
       id="path2276"
       inkscape:connector-curvature="0" />
    <path
       style="fill:#ff3caa;fill-opacity:1;stroke:none;stroke-width:0.85399997;stroke-miterlimit:4;stroke-dasharray:none;stroke-opacity:1"
       d="m 14.221357,35.71875 -2.050524,1.918229 c 0,0 -1.984375,1.256771 -1.719792,1.256771 0.264583,0 1.984375,1.124479 1.984375,1.124479 0,0 -2.5135417,1.455208 -1.984375,1.653645 0.529167,0.198438 2.844271,1.322917 2.844271,1.322917 l 3.638021,1.785938 c 0,0 3.638021,-3.902605 3.638021,-3.902605 l 2.315104,1.389063 0.992187,-3.638021 c 0,0 -0.859896,-2.050518 -0.859896,-2.050518 l 1.984375,-0.463023 0.992188,-2.315105 -6.879167,1.455211 -0.463021,-1.918226 3.836459,-3.505735 -2.315104,-3.307291 -3.042705,-0.529167 -3.638025,1.322917 -0.661458,2.447396 1.389062,2.513541 z"
       id="path2278"
       inkscape:connector-curvature="0" />
  </g>
</svg>
