<?xml version="1.0" encoding="UTF-8" standalone="no"?>
<!-- Created with Inkscape (http://www.inkscape.org/) -->

<svg
   xmlns:dc="http://purl.org/dc/elements/1.1/"
   xmlns:cc="http://creativecommons.org/ns#"
   xmlns:rdf="http://www.w3.org/1999/02/22-rdf-syntax-ns#"
   xmlns:svg="http://www.w3.org/2000/svg"
   xmlns="http://www.w3.org/2000/svg"
   xmlns:sodipodi="http://sodipodi.sourceforge.net/DTD/sodipodi-0.dtd"
   xmlns:inkscape="http://www.inkscape.org/namespaces/inkscape"
   width="256"
   height="256"
   viewBox="0 0 67.733331 67.733331"
   version="1.1"
   id="svg16"
   inkscape:version="0.92.3 (2405546, 2018-03-11)"
   sodipodi:docname="failunder_default.svg">
  <defs
     id="defs10" />
  <sodipodi:namedview
     id="base"
     pagecolor="#ffffff"
     bordercolor="#666666"
     borderopacity="1.0"
     inkscape:pageopacity="0.0"
     inkscape:pageshadow="2"
     inkscape:zoom="2"
     inkscape:cx="157.70291"
     inkscape:cy="114.82603"
     inkscape:document-units="mm"
     inkscape:current-layer="layer1"
     showgrid="false"
     units="px"
     inkscape:window-width="1920"
     inkscape:window-height="986"
     inkscape:window-x="-11"
     inkscape:window-y="-11"
     inkscape:window-maximized="1" />
  <metadata
     id="metadata13">
    <rdf:RDF>
      <cc:Work
         rdf:about="">
        <dc:format>image/svg+xml</dc:format>
        <dc:type
           rdf:resource="http://purl.org/dc/dcmitype/StillImage" />
        <dc:title />
      </cc:Work>
    </rdf:RDF>
  </metadata>
  <g
     inkscape:label="Layer 1"
     inkscape:groupmode="layer"
     id="layer1"
     transform="translate(0,-229.26668)">
    <rect
       ry="4.2634783"
       y="240.77708"
       x="17.96339"
       height="29.560011"
       width="30.583242"
       id="rect4144"
       style="fill:#3e683c;fill-opacity:1;stroke:none;stroke-width:1.03793848;stroke-miterlimit:4;stroke-dasharray:none;stroke-opacity:1" />
    <rect
       style="fill:#3e363c;fill-opacity:1;stroke:none;stroke-width:0.85399997;stroke-miterlimit:4;stroke-dasharray:none;stroke-opacity:1"
       id="rect4142"
       width="25.163427"
       height="24.321527"
       x="20.673298"
       y="243.39633"
       ry="3.507925" />
    <rect
       style="fill:#efe658;fill-opacity:1;stroke:none;stroke-width:0.85399997;stroke-miterlimit:4;stroke-dasharray:none;stroke-opacity:1"
       id="rect4123"
       width="7.0158248"
       height="18.895956"
       x="143.33902"
       y="201.93785"
       ry="3.5079124"
       transform="rotate(27.951292)" />
    <ellipse
       style="fill:#002458;fill-opacity:1;stroke:none;stroke-width:1.18393135;stroke-miterlimit:4;stroke-dasharray:none;stroke-opacity:1"
       id="path4125"
       cx="27.715076"
       cy="260.79367"
       rx="3.0757813"
       ry="2.9765625" />
    <rect
       style="fill:#3ee658;fill-opacity:1;stroke:none;stroke-width:0.85399997;stroke-miterlimit:4;stroke-dasharray:none;stroke-opacity:1"
       id="rect4123-6"
       width="7.0158248"
       height="18.895956"
       x="-107.43427"
       y="226.66328"
       ry="3.5079124"
       transform="rotate(-31.901312)" />
    <path
       style="fill:#3e683c;fill-opacity:1;stroke:none;stroke-width:0.85399997;stroke-miterlimit:4;stroke-dasharray:none;stroke-opacity:1"
       d="m 27.408489,269.96296 -0.561266,9.9157 -10.664053,0.18708 -2.15152,12.90912 2.15152,-1.30962 0.841899,-10.00924 11.880131,0.28063 0.561266,-12.72203 z"
       id="path4146"
       inkscape:connector-curvature="0" />
    <path
       style="fill:#3e683c;fill-opacity:1;stroke:none;stroke-width:0.85399997;stroke-miterlimit:4;stroke-dasharray:none;stroke-opacity:1"
       d="m 40.036976,270.0565 0.187087,11.69304 7.390003,0.28064 3.554685,11.97367 2.61924,0.65481 -5.519116,-14.03165 -6.73519,-1.40316 -0.18709,-10.10279 z"
       id="path4148"
       inkscape:connector-curvature="0" />
    <path
       style="fill:#3e683c;fill-opacity:1;stroke:none;stroke-width:0.85399997;stroke-miterlimit:4;stroke-dasharray:none;stroke-opacity:1"
       d="m 47.520521,266.31473 9.635066,5.33202 6.173928,-6.17392 3.928861,4.8643 v -2.24506 l -4.583673,-5.23848 -6.92228,7.39 -8.418989,-5.79975 z"
       id="path4152"
       inkscape:connector-curvature="0" />
    <path
       style="fill:#3e683c;fill-opacity:1;stroke:none;stroke-width:0.85399997;stroke-miterlimit:4;stroke-dasharray:none;stroke-opacity:1"
       d="m 48.455966,247.98004 -0.374179,2.89987 12.160763,-3.92886 -2.245064,-8.88671 5.144939,-4.11595 -1.403164,-2.71279 -1.683798,0.74836 1.309619,1.49671 -3.928862,4.20949 1.590255,8.69962 z"
       id="path4154"
       inkscape:connector-curvature="0" />
    <path
       style="fill:#3e683c;fill-opacity:1;stroke:none;stroke-width:0.85399997;stroke-miterlimit:4;stroke-dasharray:none;stroke-opacity:1"
       d="m 20.018487,248.72839 -0.374177,3.18051 -7.202914,-2.43215 -1.590253,-7.57709 -8.1383574,-0.8419 1.8708867,-8.41899 1.8708867,-0.28064 -2.5256971,7.29646 8.3254461,0.93545 c 0,0 0.561266,7.67063 1.122532,7.76418 0.561266,0.0935 6.641647,0.37417 6.641647,0.37417 z"
       id="path4156"
       inkscape:connector-curvature="0" />
    <path
       style="fill:#3e683c;fill-opacity:1;stroke:none;stroke-width:0.85399997;stroke-miterlimit:4;stroke-dasharray:none;stroke-opacity:1"
       d="m 18.708867,264.63093 -4.115951,3.74177 -7.6706353,0.65481 -3.367596,10.47697 -3.08696302,-0.56127 0.46772165,-1.87088 1.68379797,1.12253 3.648229,-10.10279 8.1383567,-0.74835 4.022407,-3.92887 0.374177,1.77735 0.467722,-0.0935 z"
       id="path4158"
       inkscape:connector-curvature="0" />
    <path
       style="fill:#3e683c;fill-opacity:1;stroke:none;stroke-width:0.85399997;stroke-miterlimit:4;stroke-dasharray:none;stroke-opacity:1"
       d="m 27.502035,241.9932 1.496708,-1.96443 -7.015825,-6.45456 -10.664054,-1.49671 0.374178,1.02899 10.009243,1.87089 5.519117,5.14493 z"
       id="path4160"
       inkscape:connector-curvature="0" />
    <path
       style="fill:#3e683c;fill-opacity:1;stroke:none;stroke-width:0.85399997;stroke-miterlimit:4;stroke-dasharray:none;stroke-opacity:1"
       d="m 39.007986,242.92864 -1.683798,-3.27405 6.173928,-8.32544 8.512535,1.30962 -0.654812,2.33861 -7.296457,-2.71279 -5.051396,6.82874 z"
       id="path4162"
       inkscape:connector-curvature="0" />
  </g>
</svg>
