<?xml version="1.0" encoding="UTF-8" standalone="no"?>
<!-- Created with Inkscape (http://www.inkscape.org/) -->

<svg
   xmlns:dc="http://purl.org/dc/elements/1.1/"
   xmlns:cc="http://creativecommons.org/ns#"
   xmlns:rdf="http://www.w3.org/1999/02/22-rdf-syntax-ns#"
   xmlns:svg="http://www.w3.org/2000/svg"
   xmlns="http://www.w3.org/2000/svg"
   xmlns:sodipodi="http://sodipodi.sourceforge.net/DTD/sodipodi-0.dtd"
   xmlns:inkscape="http://www.inkscape.org/namespaces/inkscape"
   width="256"
   height="256"
   viewBox="0 0 67.733331 67.733331"
   version="1.1"
   id="svg16"
   inkscape:version="0.92.3 (2405546, 2018-03-11)"
   sodipodi:docname="finger.svg">
  <defs
     id="defs10" />
  <sodipodi:namedview
     id="base"
     pagecolor="#ffffff"
     bordercolor="#666666"
     borderopacity="1.0"
     inkscape:pageopacity="0.0"
     inkscape:pageshadow="2"
     inkscape:zoom="2.8284271"
     inkscape:cx="104.66123"
     inkscape:cy="128.22401"
     inkscape:document-units="mm"
     inkscape:current-layer="layer4"
     showgrid="false"
     units="px"
     inkscape:window-width="1920"
     inkscape:window-height="986"
     inkscape:window-x="-11"
     inkscape:window-y="-11"
     inkscape:window-maximized="1" />
  <metadata
     id="metadata13">
    <rdf:RDF>
      <cc:Work
         rdf:about="">
        <dc:format>image/svg+xml</dc:format>
        <dc:type
           rdf:resource="http://purl.org/dc/dcmitype/StillImage" />
        <dc:title></dc:title>
      </cc:Work>
    </rdf:RDF>
  </metadata>
  <g
     inkscape:groupmode="layer"
     id="layer5"
     inkscape:label="Layer 3">
    <rect
       style="fill:#579bbc;fill-opacity:1;stroke:none;stroke-width:3.83020735;stroke-miterlimit:4;stroke-dasharray:none;stroke-opacity:1"
       id="rect1644"
       width="67.73333"
       height="67.73333"
       x="3.5527137e-015"
       y="-1.6530355e-006" />
  </g>
  <g
     inkscape:groupmode="layer"
     id="layer4"
     inkscape:label="Layer 2"
     style="display:inline">
    <path
       style="fill:#ffffeb;fill-opacity:1;stroke:none;stroke-width:0.85399997;stroke-miterlimit:4;stroke-dasharray:none;stroke-opacity:1"
       d="m 27.174629,56.367696 -1.309621,2.946646 0.514493,7.951268 h 7.156143 l 0.514492,-5.191709 -1.216075,-3.367598 z"
       id="path1639"
       inkscape:connector-curvature="0" />
    <path
       style="fill:#ba6bab;fill-opacity:1;stroke:none;stroke-width:1.0928427;stroke-miterlimit:4;stroke-dasharray:none;stroke-opacity:1"
       d="m 24.680994,47.135956 c -0.751198,1.812191 2.403833,3.71976 2.403833,4.482788 0,0.763027 -0.600957,6.008841 -0.600957,6.008841 l 6.159823,2.193704 8.864137,-2.575217 0.676079,-3.529003 -1.652637,-2.765974 0.901438,-3.433624 -3.079912,-3.71976 z"
       id="path1637"
       inkscape:connector-curvature="0" />
    <path
       style="fill:#ffffeb;fill-opacity:1;stroke:none;stroke-width:0.85399997;stroke-miterlimit:4;stroke-dasharray:none;stroke-opacity:1"
       d="m 44.812021,29.033319 2.38125,1.5875 0.529167,7.408334 -3.042709,8.40052 -3.175,2.579688 -8.40052,-2.447396 -7.011459,3.439583 0.529167,1.455209 -3.770312,-2.976563 -1.322917,-4.167187 -0.06614,-2.315105 -2.513545,-0.132291 -12.8322916,-4.299479 -0.79375,-2.976563 4.7798286,-2.964349 1.504025,2.236745 4.108635,-0.178771 4.887198,4.279813 1.984379,-5.953125 z"
       id="path1581"
       inkscape:connector-curvature="0" />
    <path
       style="fill:#8aa440;fill-opacity:1;stroke:none;stroke-width:0.85399997;stroke-miterlimit:4;stroke-dasharray:none;stroke-opacity:1"
       d="m 40.504697,26.66737 0.735449,-1.668946 4.034896,1.521354 0.06615,3.96875 -8.202083,13.361458 -7.540625,2.778125 -5.291667,-0.661459 -2.844271,-3.96875 -0.79375,-7.077604 1.918229,-2.910416 3.277987,0.410464 1.881388,-1.005777 10.79387,-3.531124 z"
       id="path1579"
       inkscape:connector-curvature="0" />
    <path
       style="fill:#ffffff;fill-opacity:1;stroke:none;stroke-width:0.85399997;stroke-miterlimit:4;stroke-dasharray:none;stroke-opacity:1"
       d="M 6.1167094,37.566132 5.9844177,52.052069 19.147438,52.911965 19.345876,37.235403 14.873549,31.905853 10.102788,31.62522 Z"
       id="path1575"
       inkscape:connector-curvature="0" />
    <path
       style="fill:#f7d694;fill-opacity:1;stroke:none;stroke-width:0.85399997;stroke-miterlimit:4;stroke-dasharray:none;stroke-opacity:1"
       d="m 10.102788,31.62522 -1.4063907,2.63362 2.3151037,2.116667 0.661458,-0.264584 1.124479,2.182813 -0.992187,14.353645 4.167187,0.396875 1.389063,-0.529166 -0.529167,-13.890625 -0.727604,-1.5875 -0.389282,-3.353771 v 0 z"
       id="path1569"
       inkscape:connector-curvature="0" />
    <path
       style="fill:#5f3b45;fill-opacity:1;stroke:none;stroke-width:0.85399997;stroke-miterlimit:4;stroke-dasharray:none;stroke-opacity:1"
       d="m 8.0448133,52.1582 -0.280634,15.247727 3.2272797,-0.04677 2.104747,-12.441396 1.122532,12.581712 3.040191,-0.23386 0.102572,-14.75052 z"
       id="path1577"
       inkscape:connector-curvature="0"
       sodipodi:nodetypes="cccccccc" />
    <path
       style="fill:#838d86;fill-opacity:1;stroke:none;stroke-width:0.85399997;stroke-miterlimit:4;stroke-dasharray:none;stroke-opacity:1"
       d="m 24.274754,32.654208 c 0,0 -2.151519,1.824115 -1.964431,1.870885 0.187089,0.04677 1.07576,2.291837 1.356393,2.291837 0.280633,0 6.688419,-1.028989 6.688419,-1.028989 l 8.606081,-3.274049 2.38538,-3.414369 0.748353,-1.543481 -1.590252,-0.888672 -1.964431,1.216075 -12.675258,4.536901 z"
       id="path1565"
       inkscape:connector-curvature="0" />
    <path
       style="fill:#2f1400;fill-opacity:1;stroke:none;stroke-width:0.85399997;stroke-miterlimit:4;stroke-dasharray:none;stroke-opacity:1"
       d="m 8.8867113,17.219392 -2.619241,-0.187089 c 0,0 -1.5902535,-3.928862 -1.4031651,-4.303039 C 5.051394,12.355087 5.7062044,9.3616683 6.8287364,8.9874912 7.9512683,8.6133137 11.038231,7.5843261 11.038231,7.5843261 l 2.432153,-2.0579754 2.338608,1.403165 2.15152,0.280633 -0.748355,2.6192416 2.899874,3.4611397 -1.403165,1.777342 z"
       id="path1504"
       inkscape:connector-curvature="0" />
    <path
       style="fill:#fcc3b1;fill-opacity:1;stroke:none;stroke-width:0.26458332px;stroke-linecap:butt;stroke-linejoin:miter;stroke-opacity:1"
       d="m 10.102788,31.62522 0.374177,-4.77076 -1.4967087,-3.554686 -0.374178,-1.777343 -2.338608,-4.490128 1.2160763,-1.30962 1.4031647,1.496709 1.6837977,-6.173926 2.525697,-1.6837977 2.712786,1.0289877 1.403165,-0.5612657 1.496709,5.2384817 0.561266,8.231902 -2.057975,6.267469 -2.057975,-0.46772 -0.280633,2.80633 0.841899,1.777341 -2.80633,-0.09354 z"
       id="path1502"
       inkscape:connector-curvature="0" />
    <path
       style="fill:#ffffff;fill-opacity:1;stroke:none;stroke-width:0.85399997;stroke-miterlimit:4;stroke-dasharray:none;stroke-opacity:1"
       id="path1506"
       sodipodi:type="arc"
       sodipodi:cx="13.142979"
       sodipodi:cy="15.395277"
       sodipodi:rx="1.6370258"
       sodipodi:ry="1.4499372"
       sodipodi:start="0"
       sodipodi:end="6.2733293"
       d="m 14.780005,15.395277 a 1.6370258,1.4499372 0 0 1 -1.632993,1.449933 1.6370258,1.4499372 0 0 1 -1.641039,-1.442788 1.6370258,1.4499372 0 0 1 1.624905,-1.457043 1.6370258,1.4499372 0 0 1 1.649047,1.435608 l -1.636946,0.01429 z" />
    <path
       style="fill:#ffffff;fill-opacity:1;stroke:none;stroke-width:0.85399997;stroke-miterlimit:4;stroke-dasharray:none;stroke-opacity:1"
       id="path1510"
       sodipodi:type="arc"
       sodipodi:cx="16.931524"
       sodipodi:cy="15.418664"
       sodipodi:rx="1.2160764"
       sodipodi:ry="1.3330069"
       sodipodi:start="0"
       sodipodi:end="6.2733242"
       d="m 18.147601,15.418664 a 1.2160764,1.3330069 0 0 1 -1.213079,1.333003 1.2160764,1.3330069 0 0 1 -1.219059,-1.326431 1.2160764,1.3330069 0 0 1 1.207067,-1.339542 1.2160764,1.3330069 0 0 1 1.225012,1.319825 l -1.216018,0.01314 z" />
    <path
       style="fill:#000000;fill-opacity:1;stroke:none;stroke-width:0.85399997;stroke-miterlimit:4;stroke-dasharray:none;stroke-opacity:1"
       id="path1514"
       sodipodi:type="arc"
       sodipodi:cx="13.610701"
       sodipodi:cy="15.886385"
       sodipodi:rx="0.46772179"
       sodipodi:ry="0.49110815"
       sodipodi:start="0"
       sodipodi:end="6.2733242"
       d="m 14.078422,15.886385 a 0.46772179,0.49110815 0 0 1 -0.466568,0.491107 0.46772179,0.49110815 0 0 1 -0.468869,-0.488686 0.46772179,0.49110815 0 0 1 0.464256,-0.493516 0.46772179,0.49110815 0 0 1 0.471159,0.486252 l -0.467699,0.0048 z" />
    <path
       style="fill:#000000;fill-opacity:1;stroke:none;stroke-width:0.85399997;stroke-miterlimit:4;stroke-dasharray:none;stroke-opacity:1"
       id="path1516"
       sodipodi:type="arc"
       sodipodi:cx="17.352474"
       sodipodi:cy="15.921465"
       sodipodi:rx="0.42094961"
       sodipodi:ry="0.50280076"
       sodipodi:start="0"
       sodipodi:end="6.2733242"
       d="m 17.773424,15.921465 a 0.42094961,0.50280076 0 0 1 -0.419912,0.502799 0.42094961,0.50280076 0 0 1 -0.421982,-0.50032 0.42094961,0.50280076 0 0 1 0.417831,-0.505266 0.42094961,0.50280076 0 0 1 0.424042,0.497829 l -0.420929,0.005 z" />
    <path
       style="opacity:0.29800002;fill:#000000;fill-opacity:1;stroke:none;stroke-width:0.85399997;stroke-miterlimit:4;stroke-dasharray:none;stroke-opacity:1"
       d="m 13.587315,24.071513 0.841899,-1.49671 1.824114,0.28063 1.543482,-0.98221 0.04677,1.96443 -1.777342,-0.37418 z"
       id="path1518"
       inkscape:connector-curvature="0" />
    <path
       style="fill:#ba6bab;fill-opacity:1;stroke:none;stroke-width:0.85399997;stroke-miterlimit:4;stroke-dasharray:none;stroke-opacity:1"
       d="m 26.489625,35.05259 1.12448,-0.992187 0.132291,-2.645834 -2.182812,-4.299479 -1.124479,-4.167187 2.315104,-3.042709 4.365625,0.33073 1.058333,1.785937 h 0.926042 l 0.330729,1.852083 -0.396875,0.396875 1.389062,4.497917 v 2.315104 l 2.71198,0.264583 -0.79375,1.5875 -8.665105,2.844271 z"
       id="path1541"
       inkscape:connector-curvature="0" />
    <path
       style="fill:#e8d3ab;fill-opacity:1;stroke:none;stroke-width:0.85399997;stroke-miterlimit:4;stroke-dasharray:none;stroke-opacity:1"
       d="m 26.60449,21.355702 -1.229942,2.106695 1.12975,3.699465 1.242098,4.252707 c 0,0 2.844271,1.124479 3.108854,1.124479 0.264584,0 3.571875,-1.455208 3.571875,-1.455208 v -2.315104 l -3.37149,-7.542002 -2.860891,-0.712931 z"
       id="path1543"
       inkscape:connector-curvature="0"
       sodipodi:nodetypes="ccccsccccc" />
    <path
       style="fill:#e8d3ab;fill-opacity:1;stroke:none;stroke-width:0.85399997;stroke-miterlimit:4;stroke-dasharray:none;stroke-opacity:1"
       id="path1547"
       sodipodi:type="arc"
       sodipodi:cx="27.314947"
       sodipodi:cy="23.97797"
       sodipodi:rx="0.84189904"
       sodipodi:ry="0.81851292"
       sodipodi:start="0"
       sodipodi:end="6.2733242"
       d="m 28.156846,23.97797 a 0.84189904,0.81851292 0 0 1 -0.839823,0.818511 0.84189904,0.81851292 0 0 1 -0.843965,-0.814475 0.84189904,0.81851292 0 0 1 0.835663,-0.822526 0.84189904,0.81851292 0 0 1 0.848084,0.810419 l -0.841858,0.0081 z" />
    <ellipse
       style="fill:#ffffff;fill-opacity:1;stroke:none;stroke-width:0.85399997;stroke-miterlimit:4;stroke-dasharray:none;stroke-opacity:1"
       id="path1553"
       cx="27.262325"
       cy="24.194292"
       rx="0.81266642"
       ry="0.82435942" />
    <ellipse
       style="fill:#ffffff;fill-opacity:1;stroke:none;stroke-width:0.85399997;stroke-miterlimit:4;stroke-dasharray:none;stroke-opacity:1"
       id="path1555"
       cx="30.232361"
       cy="23.416704"
       rx="0.81266642"
       ry="0.78343379" />
    <ellipse
       style="fill:#000000;fill-opacity:1;stroke:none;stroke-width:0.85399997;stroke-miterlimit:4;stroke-dasharray:none;stroke-opacity:1"
       id="path1557"
       cx="30.472065"
       cy="23.35824"
       rx="0.28063297"
       ry="0.23386084" />
    <ellipse
       style="fill:#000000;fill-opacity:1;stroke:none;stroke-width:0.85399997;stroke-miterlimit:4;stroke-dasharray:none;stroke-opacity:1"
       id="path1559"
       cx="27.548805"
       cy="24.205984"
       rx="0.23386011"
       ry="0.2280145" />
    <path
       style="fill:#000000;fill-opacity:1;stroke:none;stroke-width:0.85399997;stroke-miterlimit:4;stroke-dasharray:none;stroke-opacity:1"
       d="m 28.928584,26.90123 1.309621,-0.584652 2.128134,0.04677 -1.870888,1.520094 -2.853099,-0.374176 z"
       id="path1563"
       inkscape:connector-curvature="0" />
    <path
       style="fill:#f7d694;fill-opacity:1;stroke:none;stroke-width:0.85399997;stroke-miterlimit:4;stroke-dasharray:none;stroke-opacity:1"
       d="M 10.102788,31.62522 4.3969177,37.103111 2.1479594,67.331756 H 4.7937927 L 7.3734802,39.947382 8.5641053,38.558319 8.6963973,34.25884 Z"
       id="path1567"
       inkscape:connector-curvature="0" />
    <path
       style="fill:#f7d694;fill-opacity:1;stroke:none;stroke-width:0.85399997;stroke-miterlimit:4;stroke-dasharray:none;stroke-opacity:1"
       d="m 18.089105,35.317173 -0.330729,4.299479 -0.198438,23.283334 2.182813,1.5875 v -2.71198 l 0.859895,-23.812499 z"
       id="path1573"
       inkscape:connector-curvature="0" />
    <path
       style="fill:#ffffeb;fill-opacity:1;stroke:none;stroke-width:0.85399997;stroke-miterlimit:4;stroke-dasharray:none;stroke-opacity:1"
       d="m 46.994834,40.344257 7.672916,2.38125 3.241146,-1.256771 1.521354,-11.575521 4.167188,-3.042708 1.852083,-3.307292 -1.984375,-2.182812 3.439583,-2.976563 -2.182812,-1.124479 -3.638021,3.902604 3.704166,-4.828646 -1.455208,-0.396875 -6.416146,6.548438 -0.396875,-2.050521 -3.505729,-0.132292 2.182813,4.828646 -0.198438,2.711979 -3.042708,5.55625 -4.7625,-0.926041 z"
       id="path1583"
       inkscape:connector-curvature="0" />
    <path
       style="fill:#8aa440;fill-opacity:1;stroke:none;stroke-width:0.85399997;stroke-miterlimit:4;stroke-dasharray:none;stroke-opacity:1"
       d="m 51.955771,33.398944 -1.124479,4.365625 3.836458,4.960938 3.241146,-1.256771 -1.984375,-4.7625 z"
       id="path1587"
       inkscape:connector-curvature="0" />
    <ellipse
       style="fill:#ba6bab;fill-opacity:1;stroke:none;stroke-width:1.20591056;stroke-miterlimit:4;stroke-dasharray:none;stroke-opacity:1"
       id="path1597"
       cx="66.04483"
       cy="17.490871"
       rx="1.5213553"
       ry="1.4221355" />
    <ellipse
       style="fill:#ba6bab;fill-opacity:1;stroke:none;stroke-width:0.85399997;stroke-miterlimit:4;stroke-dasharray:none;stroke-opacity:1"
       id="path1599"
       cx="54.800045"
       cy="20.335142"
       rx="1.7197911"
       ry="2.0174477" />
    <ellipse
       style="fill:#ba6bab;fill-opacity:1;stroke:none;stroke-width:0.85399997;stroke-miterlimit:4;stroke-dasharray:none;stroke-opacity:1"
       id="path1605"
       cx="63.564362"
       cy="16.201029"
       rx="1.4221351"
       ry="1.4552082" />
    <ellipse
       style="display:inline;fill:#ba6bab;fill-opacity:1;stroke:none;stroke-width:1.09805453;stroke-miterlimit:4;stroke-dasharray:none;stroke-opacity:1"
       id="path1597-6"
       cx="62.109161"
       cy="24.03931"
       rx="1.3559906"
       ry="1.3229169" />
    <ellipse
       style="display:inline;fill:#ba6bab;fill-opacity:1;stroke:none;stroke-width:0.78210258;stroke-miterlimit:4;stroke-dasharray:none;stroke-opacity:1"
       id="path1597-6-2"
       cx="63.696655"
       cy="25.593737"
       rx="1.0583345"
       ry="0.859896" />
    <path
       style="fill:#ffffeb;fill-opacity:1;stroke:none;stroke-width:0.88410056;stroke-miterlimit:4;stroke-dasharray:none;stroke-opacity:1"
       d="m 36.946239,57.854111 -1.904843,3.975635 3.1079,5.425569 7.268471,-0.467719 -0.05013,-2.99342 -3.859807,-6.548104 z"
       id="path1641"
       inkscape:connector-curvature="0" />
    <path
       style="fill:#838d86;fill-opacity:1;stroke:none;stroke-width:0.85399997;stroke-miterlimit:4;stroke-dasharray:none;stroke-opacity:1"
       d="m 26.483871,57.627585 -0.618863,1.686756 3.928861,2.525699 4.817533,1.496709 2.899876,-1.637025 3.975634,-2.619243 1.824114,-2.104747 -2.478923,-1.216075 -7.670636,1.870884 -7.156142,-1.543481 -0.982216,0.841899 z"
       id="path1646"
       inkscape:connector-curvature="0" />
  </g>
</svg>
