<?xml version="1.0" encoding="UTF-8" standalone="no"?>
<!-- Created with Inkscape (http://www.inkscape.org/) -->

<svg
   xmlns:dc="http://purl.org/dc/elements/1.1/"
   xmlns:cc="http://creativecommons.org/ns#"
   xmlns:rdf="http://www.w3.org/1999/02/22-rdf-syntax-ns#"
   xmlns:svg="http://www.w3.org/2000/svg"
   xmlns="http://www.w3.org/2000/svg"
   xmlns:sodipodi="http://sodipodi.sourceforge.net/DTD/sodipodi-0.dtd"
   xmlns:inkscape="http://www.inkscape.org/namespaces/inkscape"
   width="512"
   height="256"
   viewBox="0 0 135.46666 67.733335"
   version="1.1"
   id="svg4170"
   inkscape:version="0.92.3 (2405546, 2018-03-11)"
   sodipodi:docname="gamelogo.svg">
  <defs
     id="defs4164" />
  <sodipodi:namedview
     id="base"
     pagecolor="#ffffff"
     bordercolor="#666666"
     borderopacity="1.0"
     inkscape:pageopacity="0.0"
     inkscape:pageshadow="2"
     inkscape:zoom="1.979899"
     inkscape:cx="237.11008"
     inkscape:cy="105.6291"
     inkscape:document-units="mm"
     inkscape:current-layer="layer16"
     showgrid="false"
     units="px"
     inkscape:window-width="1920"
     inkscape:window-height="986"
     inkscape:window-x="-11"
     inkscape:window-y="-11"
     inkscape:window-maximized="1" />
  <metadata
     id="metadata4167">
    <rdf:RDF>
      <cc:Work
         rdf:about="">
        <dc:format>image/svg+xml</dc:format>
        <dc:type
           rdf:resource="http://purl.org/dc/dcmitype/StillImage" />
        <dc:title></dc:title>
      </cc:Work>
    </rdf:RDF>
  </metadata>
  <g
     inkscape:groupmode="layer"
     id="layer16"
     inkscape:label="Layer 2"
     style="opacity:1">
    <path
       style="fill:#000000;fill-opacity:0.93103451;stroke:none;stroke-width:0.91615546;stroke-miterlimit:4;stroke-dasharray:none;stroke-opacity:1"
       d="m 13.148731,33.578503 -2.145801,0.100575 c 0,0 -3.0654301,-3.419324 -3.0654301,-3.922165 0,-0.502843 2.1458011,-8.146038 2.6567061,-8.548312 0.510905,-0.402273 6.641765,-3.821597 6.641765,-3.821597 l 2.247982,1.20682 -0.715267,26.85175 -3.985059,2.916482 0.613086,-6.536942 0.817448,-21.622196 -4.598145,7.9449 0.613086,3.318754 z"
       id="path4746"
       inkscape:connector-curvature="0" />
    <path
       style="fill:#000000;fill-opacity:1;stroke:none;stroke-width:3.22771645;stroke-miterlimit:4;stroke-dasharray:none;stroke-opacity:1"
       d="M 179.64258 71.357422 L 180.71484 95.285156 L 166.07227 96.357422 L 166.42773 107.78516 L 180.71484 108.5 L 178.57227 141 L 168.21484 155.64258 C 168.21484 155.64258 169.64314 154.21345 170.35742 144.92773 C 171.07171 135.64202 153.92773 127.42773 153.92773 127.42773 L 152.14258 121 L 158.21484 114.21484 L 157.14258 108.14258 C 157.14258 108.14258 153.21401 104.57115 149.64258 105.64258 C 146.07115 106.71401 137.14258 111.71513 137.14258 117.07227 C 137.14258 122.42941 135.71345 127.07171 138.92773 128.85742 C 142.14202 130.64314 142.14258 132.07115 139.64258 133.14258 C 137.14258 134.21401 126.42773 157.78516 126.42773 157.78516 C 126.42773 157.78516 122.85686 163.50084 122.14258 159.57227 C 121.42829 155.6437 121.78516 111 121.78516 111 L 114.64258 107.78516 L 102.85742 109.92773 L 93.572266 127.78516 L 89.285156 139.92773 L 91.072266 112.07227 C 91.072266 112.07227 84.999161 103.49945 81.427734 110.28516 L 80.357422 169.92773 L 88.214844 171.71484 L 108.92773 119.57227 C 108.92773 119.57227 109.64202 167.07087 111.42773 167.78516 C 113.21346 168.49945 124.28516 169.57227 124.28516 169.57227 L 144.64258 134.92773 L 157.85742 143.5 L 155.71484 157.07227 L 141.78516 157.42773 L 135.71484 166.35742 L 163.92773 171.71484 L 178.57227 152.42773 L 191.07227 171.35742 L 209.28516 165.28516 L 208.92773 154.57227 L 223.57227 169.92773 L 236.42773 162.07227 L 243.92773 157.78516 L 249.28516 169.92773 L 266.07227 160.64258 L 267.85742 153.14258 L 257.5 158.85742 L 250 160.64258 L 250.71484 107.42773 L 239.28516 107.42773 L 237.85742 113.14258 L 226.07227 107.42773 L 210.71484 119.92773 L 206.07227 142.78516 L 206.07227 152.07227 L 199.64258 160.28516 L 193.21484 157.78516 L 191.07227 105.28516 L 210.71484 104.57227 L 209.64258 97.785156 L 194.28516 97.072266 L 192.14258 80.642578 L 179.64258 71.357422 z M 234.86133 124.67969 L 235.87109 147.15625 C 235.87109 147.15625 226.52753 156.24825 224.75977 157.00586 C 222.99199 157.76347 217.68711 150.6918 216.17188 149.68164 C 214.65665 148.67149 221.47656 125.68945 221.47656 125.68945 L 234.86133 124.67969 z "
       transform="scale(0.26458333)"
       id="path4748" />
    <path
       style="fill:#ff0000;fill-opacity:0.93103452;stroke:none;stroke-width:0.85399997;stroke-miterlimit:4;stroke-dasharray:none;stroke-opacity:1"
       d="m 71.87404,43.37432 c 0.439617,2.74682 1.640643,6.703587 5.01401,6.737095 2.95808,-0.827367 5.253316,-3.961545 5.490681,-6.990516 0.06257,-4.62306 -3.475248,-8.413774 -7.426178,-10.321214 -4.836605,-3.14777 -10.352128,-7.338876 -10.659809,-13.623117 -0.104309,-3.563445 0.837602,-7.306649 3.552584,-9.7934487 3.97424,-4.1084088 11.237135,-5.5725972 15.76119,-1.5162023 1.962564,1.8240463 3.084992,5.802519 0.509364,7.568325 -2.753076,1.198763 -3.71467,-1.247316 -4.551649,-3.293521 -2.638363,-2.5995297 -7.07258,-0.358355 -8.500839,2.516447 -1.75589,3.407283 -0.484404,7.650298 2.451611,9.965528 3.180406,2.772833 7.171646,4.456785 10.07025,7.590283 2.860636,2.583113 4.745248,6.199161 4.848252,10.08318 0.55636,5.257743 -3.579781,9.472636 -7.699017,12.046622 -4.251629,3.10701 -10.253776,0.412141 -12.743988,-3.694666 -1.711491,-2.068424 -2.882116,-6.355985 0.281157,-7.674848 1.196721,-0.346865 2.4711,-0.02508 3.602381,0.400053 z"
       id="path4757"
       inkscape:connector-curvature="0" />
    <path
       style="fill:#ff0000;fill-opacity:0.93103452;stroke:none;stroke-width:0.85399997;stroke-miterlimit:4;stroke-dasharray:none;stroke-opacity:1"
       d="m 90.408486,25.845368 c -2.756921,1.069246 -1.724468,6.685389 1.277634,5.828581 1.778376,-2.026965 2.614636,-7.403602 -1.443457,-7.161892 -1.987619,0.528775 -3.879344,0.0661 -2.567028,-2.281286 2.162747,-2.662268 6.561689,-1.294482 8.620363,0.862897 1.839567,2.675899 1.449074,6.648233 0.03115,9.486226 -1.792807,3.270501 -6.391376,4.63901 -9.479032,2.324598 -2.792024,-2.230955 -2.809438,-6.610995 -1.46518,-9.656874 1.046535,-2.600883 4.528864,-2.191313 5.025555,0.59775 z"
       id="path4759"
       inkscape:connector-curvature="0" />
    <path
       style="fill:#ff0000;fill-opacity:0.93103452;stroke:none;stroke-width:0.85399997;stroke-miterlimit:4;stroke-dasharray:none;stroke-opacity:1"
       d="m 102.95786,24.045835 c 0.59189,3.883699 -1.81479,8.115809 0.2755,11.74844 1.9145,1.869179 6.51381,2.787775 7.86471,-0.1962 1.37188,-3.684239 -0.57224,-8.082037 1.77593,-11.453585 4.01005,-3.312702 3.54064,3.339968 3.60382,5.817505 -0.1071,3.499769 -0.76235,7.186112 -2.9353,10.032309 -4.0033,1.798122 -9.37544,2.596671 -12.99011,-0.437613 -2.270463,-2.17513 -2.070741,-5.581971 -2.581059,-8.45588 -0.220626,-2.602976 -0.111017,-5.777221 2.169569,-7.500647 0.96107,-0.07557 1.89801,0.207312 2.81694,0.445671 z"
       id="path4761"
       inkscape:connector-curvature="0" />
    <path
       style="fill:#ff0000;fill-opacity:0.93103452;stroke:none;stroke-width:0.85399997;stroke-miterlimit:4;stroke-dasharray:none;stroke-opacity:1"
       d="m 122.23204,19.54714 c 1.88952,6.046514 0.89537,12.437363 1.22754,18.650005 -3.5477,1.054068 1.03633,-3.9789 2.80121,-2.378261 2.52827,0.04593 5.89867,-0.757314 7.6724,1.442882 0.14111,4.029656 -4.18791,1.368723 -6.48967,2.901262 -2.31076,0.850393 -4.83736,2.104178 -7.32221,1.149106 -2.30158,-6.398352 -0.73351,-13.365272 -2.31017,-19.899687 0.14928,-2.177046 2.80715,-2.451648 4.4209,-1.865307 z"
       id="path4763"
       inkscape:connector-curvature="0" />
    <path
       style="fill:#ff0000;fill-opacity:1;stroke:none;stroke-width:0.85399997;stroke-miterlimit:4;stroke-dasharray:none;stroke-opacity:1"
       d="m 128.68631,38.260519 c 1.76352,7.574208 -3.07651,14.872923 -1.6252,22.456316 3.96249,-3.0117 -1.00842,-8.824738 1.04914,-13.010726 0.295,-2.12058 0.30296,-8.871919 1.11385,-7.963003 0.64414,5.779884 -0.89796,11.597466 -0.20176,17.322907 -1.99538,2.312227 -1.3905,-4.924919 -1.20836,-6.434918 1.49936,-3.724144 -1.43099,-9.690262 1.48053,-12.085711 1.95753,2.858784 -0.77257,7.041768 -0.19296,10.529839 -0.26578,3.833659 0.60142,7.621772 0.90372,11.394215 -1.77411,4.549598 -6.3733,-0.05034 -4.43393,-3.373548 -0.0259,-5.731719 3.00474,-11.234079 1.87218,-16.932862 -0.0328,-0.809371 0.47576,-1.61287 1.24279,-1.902509 z"
       id="path4783"
       inkscape:connector-curvature="0" />
    <path
       style="fill:#fffffb;fill-opacity:0.98029554;stroke:none;stroke-width:0.19720969px;stroke-linecap:butt;stroke-linejoin:miter;stroke-opacity:1"
       d="m 127.81397,50.631095 c -0.27273,0.504097 -0.26847,0.63074 -0.26847,1.227238 0,0.396242 0.0259,0.946568 -0.0525,1.322916 -0.25562,1.227006 -1.48391,8.69849 0.36749,8.031994 0.19323,-0.06956 0.27689,-0.90941 0.36748,-1.181175 0.38773,-1.163177 0.66649,-2.364308 0.49872,-3.874256 -0.0535,-0.481492 -0.24653,-0.867132 -0.28873,-1.322917 -0.13733,-1.483108 -0.2891,-2.851549 -0.62398,-4.2038 z"
       id="path4799"
       inkscape:connector-curvature="0" />
  </g>
</svg>
