<?xml version="1.0" encoding="UTF-8" standalone="no"?>
<!-- Created with Inkscape (http://www.inkscape.org/) -->

<svg
   xmlns:dc="http://purl.org/dc/elements/1.1/"
   xmlns:cc="http://creativecommons.org/ns#"
   xmlns:rdf="http://www.w3.org/1999/02/22-rdf-syntax-ns#"
   xmlns:svg="http://www.w3.org/2000/svg"
   xmlns="http://www.w3.org/2000/svg"
   xmlns:sodipodi="http://sodipodi.sourceforge.net/DTD/sodipodi-0.dtd"
   xmlns:inkscape="http://www.inkscape.org/namespaces/inkscape"
   width="256"
   height="256"
   viewBox="0 0 67.733331 67.733331"
   version="1.1"
   id="svg16"
   inkscape:version="0.92.3 (2405546, 2018-03-11)"
   sodipodi:docname="trashybeach.svg">
  <defs
     id="defs10" />
  <sodipodi:namedview
     id="base"
     pagecolor="#ffffff"
     bordercolor="#666666"
     borderopacity="1.0"
     inkscape:pageopacity="0.0"
     inkscape:pageshadow="2"
     inkscape:zoom="2.8284271"
     inkscape:cx="141.00022"
     inkscape:cy="170.10172"
     inkscape:document-units="mm"
     inkscape:current-layer="layer3"
     showgrid="false"
     units="px"
     inkscape:window-width="1920"
     inkscape:window-height="986"
     inkscape:window-x="-11"
     inkscape:window-y="-11"
     inkscape:window-maximized="1" />
  <metadata
     id="metadata13">
    <rdf:RDF>
      <cc:Work
         rdf:about="">
        <dc:format>image/svg+xml</dc:format>
        <dc:type
           rdf:resource="http://purl.org/dc/dcmitype/StillImage" />
        <dc:title></dc:title>
      </cc:Work>
    </rdf:RDF>
  </metadata>
  <g
     inkscape:groupmode="layer"
     id="layer2"
     inkscape:label="Layer 2">
    <rect
       style="fill:#d3e6f0;fill-opacity:1;stroke:none;stroke-width:2.81966424;stroke-miterlimit:4;stroke-dasharray:none;stroke-opacity:1"
       id="rect848"
       width="67.73333"
       height="67.73333"
       x="0"
       y="-1.6530355e-006" />
    <path
       style="fill:#d39d89;fill-opacity:1;stroke:none;stroke-width:0.85400003;stroke-miterlimit:4;stroke-dasharray:none;stroke-opacity:1"
       d="M 7.7168416,12.888102 C 5.3361267,13.311559 1.5090867,12.998256 0,14.026492 c 0,17.902281 0,35.804561 0,53.70684 22.577777,0 45.155556,0 67.733332,0 0,-14.680757 0,-29.361515 0,-44.042272 -4.08529,-0.36756 -8.224586,-0.117382 -12.303124,0.253731 -5.07483,1.470104 -9.810941,-1.720402 -13.498576,-4.845765 -1.941558,-3.115473 -5.441413,-2.397926 -8.55344,-2.284064 -6.114586,-0.09509 -12.379498,0.71502 -18.35269,-0.915075 -2.331527,-1.218968 -4.48189,-3.232143 -7.3086604,-3.011785 z"
       id="rect840"
       inkscape:connector-curvature="0" />
    <path
       style="fill:#00a000;fill-opacity:1;stroke:none;stroke-width:0.26458332px;stroke-linecap:butt;stroke-linejoin:miter;stroke-opacity:1"
       d="m 20.240624,12.435417 c 3.299768,0.125224 6.073263,-2.235266 9.363027,-2.234862 3.774704,-0.5131497 7.629536,-1.1258386 11.050913,-2.8946935 1.955142,-0.7735286 4.323242,-0.4299933 5.775199,1.1422377 2.012706,1.1813148 4.336244,-0.9677014 6.330961,0.316821 2.243289,1.09213 4.568848,2.0409518 7.043085,2.4512108 1.96518,0.425018 4.020725,0.858609 5.655595,2.102399 0.892088,2.201383 -2.636262,1.304218 -3.866395,1.432967 -3.520786,0.141801 -7.045404,0.04577 -10.543493,-0.391256 C 45.655635,13.810296 40.25196,13.244395 34.82568,13.214779 32.591365,13.006716 30.346813,12.842355 28.105091,12.860782 25.524897,12.496702 22.754615,10.989463 20.240624,12.435417 Z"
       id="path836"
       inkscape:connector-curvature="0" />
    <path
       style="fill:#1490e3;fill-opacity:1;stroke:none;stroke-width:0.99999994px;stroke-linecap:butt;stroke-linejoin:miter;stroke-opacity:1"
       d="M 42.632812 36.548828 C 27.98847 36.633459 13.325572 37.377743 0 37.482422 L 0 52.599609 C 1.5983385 52.909444 3.5172048 53.339067 5.5 54 C 13.804842 56.768281 20.81795 56.908975 29 61 C 45.776463 69.388231 65.198929 72.585255 82.5 80 C 92.952711 84.479734 102.9292 90.27168 113.5 94.5 C 118.12029 96.348113 124.64329 96.528658 129.5 97.5 C 139.2663 99.45326 152.66979 105.42538 162.5 109 C 180.69364 115.61587 212.18795 107.5 232 107.5 C 238.36005 107.5 249.25038 109.88795 256 107.8418 L 256 46.974609 C 246.8098 47.214835 230.0524 48 229 48 C 209.06669 48 188.32122 49.801928 168.5 48 C 138.56899 45.278997 108.35053 42.764362 78.5 38.5 C 67.106344 36.872335 54.880584 36.478047 42.632812 36.548828 z "
       transform="scale(0.26458333)"
       id="path834" />
  </g>
  <g
     inkscape:groupmode="layer"
     id="layer3"
     inkscape:label="Layer 3">
    <path
       style="fill:#000000;fill-opacity:1;stroke:none;stroke-width:0.26458332px;stroke-linecap:butt;stroke-linejoin:miter;stroke-opacity:1"
       d="m 7.1437499,49.212499 c 1.6003035,-2.213328 2.9913761,-5.324845 6.1503461,-5.450615 3.5889,0.781659 6.112066,-1.238912 8.765138,-3.23406 2.851018,0.146167 -1.264309,-3.99585 1.498432,-4.184935 0.602898,1.945524 4.730454,0.934796 2.174564,3.319735 -1.259516,3.584244 4.401709,1.647004 6.05442,3.267755 0.703228,2.470194 0.389498,5.406163 3.35644,6.579365 1.882946,0.790742 1.048496,5.092306 -0.327187,2.116033 -3.127033,-0.95274 -6.457677,-0.2346 -9.615896,0.193966 -2.965166,-0.461986 -4.72708,-4.942621 -8.396887,-2.975162 -2.588253,1.555468 -5.60186,1.346294 -8.4698824,0.95967 -0.4406473,-0.01991 -0.8805735,-0.05546 -1.3217804,-0.06258"
       id="path862"
       inkscape:connector-curvature="0" />
    <path
       style="fill:#ffffff;fill-opacity:1;stroke:none;stroke-width:0.26458332px;stroke-linecap:butt;stroke-linejoin:miter;stroke-opacity:1"
       d="m 22.699406,40.210008 c -0.317048,1.691431 5.328661,1.196877 1.97449,0.51095 -0.624883,-0.04323 -1.093555,-0.61582 -1.740633,-0.464178"
       id="path864"
       inkscape:connector-curvature="0" />
    <path
       style="fill:#ffffff;fill-opacity:1;stroke:none;stroke-width:0.26458332px;stroke-linecap:butt;stroke-linejoin:miter;stroke-opacity:1"
       d="m 48.418749,56.753124 c -1.037197,-1.95323 0.306851,-4.937483 -2.012958,-5.622003 1.904491,-1.137042 5.086589,-0.05973 7.329437,-1.316395 2.572921,0.471698 -1.36769,1.861511 0.121284,3.402442 0.159103,1.739955 1.484423,4.704053 -1.231807,2.976784 -1.372539,1.076621 -2.332136,0.165781 -3.94137,0.625282"
       id="path870"
       inkscape:connector-curvature="0" />
    <path
       style="fill:#003c5f;fill-opacity:1;stroke:none;stroke-width:0.85399997;stroke-miterlimit:4;stroke-dasharray:none;stroke-opacity:1"
       d="m 52.076797,54.408942 c 0.09616,1.315754 -2.007886,1.512957 -2.135868,0.190793 -0.319301,-1.320126 1.820936,-1.84662 2.096665,-0.491069 0.02604,0.09782 0.03921,0.199077 0.0392,0.300276 z"
       id="path872"
       inkscape:connector-curvature="0" />
    <path
       style="fill:#008363;fill-opacity:1;stroke:none;stroke-width:0.85399997;stroke-miterlimit:4;stroke-dasharray:none;stroke-opacity:1"
       d="m 45.766405,35.528276 c 4.165565,-1.119248 8.437375,-1.914183 12.722368,-2.355408 0.684151,2.187319 -4.452027,1.126869 -6.079667,2.010129 -2.125528,-0.269795 -6.002429,2.580905 -7.028918,0.629794 l 0.146989,-0.170802 z"
       id="path888"
       inkscape:connector-curvature="0" />
    <path
       style="fill:#008363;fill-opacity:1;stroke:none;stroke-width:0.85399997;stroke-miterlimit:4;stroke-dasharray:none;stroke-opacity:1"
       d="M 7.3301597,20.11565 C 4.7615737,21.54248 4.2894849,18.799698 7.13185,19.028169 7.757765,19.00516 7.8989969,19.922255 7.3301597,20.11565 Z"
       id="path890"
       inkscape:connector-curvature="0" />
    <path
       style="fill:#008363;fill-opacity:1;stroke:none;stroke-width:0.85399997;stroke-miterlimit:4;stroke-dasharray:none;stroke-opacity:1"
       d="m 10.847115,22.644964 c 1.308877,-0.369266 5.555212,1.288381 2.607904,1.551588 -0.747646,-0.384209 -4.6901743,-0.152958 -2.607904,-1.551588 z"
       id="path892"
       inkscape:connector-curvature="0" />
    <path
       style="fill:#008363;fill-opacity:1;stroke:none;stroke-width:0.85399997;stroke-miterlimit:4;stroke-dasharray:none;stroke-opacity:1"
       d="m 23.367732,27.041549 c -1.857532,1.051459 -3.911391,-0.98814 -1.048508,-1.073478 0.856984,-0.410758 2.643521,0.446062 1.048508,1.073478 z"
       id="path894"
       inkscape:connector-curvature="0" />
    <path
       style="fill:#008363;fill-opacity:1;stroke:none;stroke-width:0.85399997;stroke-miterlimit:4;stroke-dasharray:none;stroke-opacity:1"
       d="m 42.318437,54.668557 c 1.695354,-0.310268 3.788362,2.308738 1.114947,1.548937 -0.727813,-0.07279 -3.048862,-1.040359 -1.114947,-1.548937 z"
       id="path896"
       inkscape:connector-curvature="0" />
    <path
       style="fill:#008363;fill-opacity:1;stroke:none;stroke-width:0.85399997;stroke-miterlimit:4;stroke-dasharray:none;stroke-opacity:1"
       d="m 56.870927,57.069278 c 1.252624,-0.773608 4.300201,0.836179 1.8145,1.03196 -0.763868,0.22345 -3.739166,0.171462 -1.8145,-1.03196 z"
       id="path898"
       inkscape:connector-curvature="0" />
    <path
       style="fill:#008363;fill-opacity:1;stroke:none;stroke-width:0.85399997;stroke-miterlimit:4;stroke-dasharray:none;stroke-opacity:1"
       d="m 64.574782,48.289162 c -0.649164,-1.53191 -5.9494,-1.487964 -3.805886,-2.991829 0.906702,-0.188536 7.445706,3.102357 3.805886,2.991829 z"
       id="path900"
       inkscape:connector-curvature="0" />
    <path
       style="fill:#008363;fill-opacity:1;stroke:none;stroke-width:0.85399997;stroke-miterlimit:4;stroke-dasharray:none;stroke-opacity:1"
       d="m 6.3364204,36.569276 c 1.0865925,-0.643529 5.5780956,-1.327654 3.061245,0.330529 -0.7661684,0.101177 -4.6717695,1.766407 -3.061245,-0.330529 z"
       id="path902"
       inkscape:connector-curvature="0" />
    <path
       style="fill:#008363;fill-opacity:1;stroke:none;stroke-width:0.85399997;stroke-miterlimit:4;stroke-dasharray:none;stroke-opacity:1"
       d="m 37.362053,36.463837 c 1.20648,0.250559 4.324606,2.88296 1.733949,2.425285 -0.436738,-0.546612 -4.476011,-2.210461 -1.733949,-2.425285 z"
       id="path904"
       inkscape:connector-curvature="0" />
    <path
       style="fill:#004963;fill-opacity:1;stroke:none;stroke-width:0.85399997;stroke-miterlimit:4;stroke-dasharray:none;stroke-opacity:1"
       id="path934"
       d="m 49.622887,50.886971 c -0.09717,-0.301131 -0.192278,-0.602888 -0.284359,-0.905682 -0.09535,-0.32747 -0.24911,-0.633498 -0.373856,-0.950124 -0.106257,-0.238713 -0.176223,-0.489943 -0.228666,-0.745239 -0.02915,-0.151553 -0.06652,-0.300736 -0.113445,-0.447649 -0.02569,-0.08688 -0.01368,-0.04314 -0.03605,-0.131214 -0.09638,-0.384996 0.448086,-0.521296 0.544465,-0.136303 v 0 c 0.01511,0.06171 0.0065,0.02939 0.02627,0.09684 0.05302,0.166161 0.09552,0.334905 0.128715,0.506204 0.04521,0.223787 0.107029,0.44328 0.201057,0.651991 0.129688,0.330613 0.290917,0.649679 0.388498,0.992198 0.09063,0.29804 0.183949,0.595167 0.279837,0.891493 0.125502,0.37651 -0.406961,0.553998 -0.532464,0.177488 z"
       inkscape:connector-curvature="0" />
    <path
       style="fill:none;stroke:#000000;stroke-width:0.26458332px;stroke-linecap:butt;stroke-linejoin:miter;stroke-opacity:1"
       d="m 46.405791,51.13112 c 2.086669,0.313553 6.480308,1.220801 7.999156,-0.298048"
       id="path938"
       inkscape:connector-curvature="0" />
  </g>
</svg>
